<svg xmlns="http://www.w3.org/2000/svg" xmlns:xlink="http://www.w3.org/1999/xlink" preserveAspectRatio="xMidYMid" width="16" height="16" viewBox="0 0 16 16">
  <defs>
    <style>
      .cls-1 {
        fill: #318ddb;
        fill-rule: evenodd;
      }
    </style>
  </defs>
  <path d="M15.000,14.000 L1.000,14.000 C0.448,14.000 -0.000,13.552 -0.000,13.000 L-0.000,5.000 C-0.000,4.448 0.448,4.000 1.000,4.000 L6.000,4.000 C6.000,4.552 6.448,5.000 7.000,5.000 L10.000,5.000 C10.552,5.000 11.000,4.552 11.000,4.000 L15.000,4.000 C15.552,4.000 16.000,4.448 16.000,5.000 L16.000,13.000 C16.000,13.552 15.552,14.000 15.000,14.000 ZM8.000,11.000 L7.000,11.000 L5.000,9.000 L5.000,8.878 C5.581,8.602 6.000,7.870 6.000,7.000 C6.000,5.895 5.328,5.000 4.500,5.000 C3.672,5.000 3.000,5.895 3.000,7.000 C3.000,7.870 3.419,8.602 4.000,8.878 L4.000,9.000 L2.000,11.000 L1.000,11.000 L1.000,12.000 L8.000,12.000 L8.000,11.000 ZM10.000,12.000 L12.000,12.000 L12.000,11.000 L10.000,11.000 L10.000,12.000 ZM10.000,10.000 L14.000,10.000 L14.000,9.000 L10.000,9.000 L10.000,10.000 ZM15.000,7.000 L10.000,7.000 L10.000,8.000 L15.000,8.000 L15.000,7.000 ZM9.000,4.000 L8.000,4.000 C7.448,4.000 7.000,3.552 7.000,3.000 C7.000,2.448 7.448,2.000 8.000,2.000 L9.000,2.000 C9.552,2.000 10.000,2.448 10.000,3.000 C10.000,3.552 9.552,4.000 9.000,4.000 Z" class="cls-1"/>
</svg>
