<svg xmlns="http://www.w3.org/2000/svg" xmlns:xlink="http://www.w3.org/1999/xlink" preserveAspectRatio="xMidYMid" width="16" height="16" viewBox="0 0 16 16">
  <defs>
    <style>
      .cls-1 {
        fill: #318ddb;
        fill-rule: evenodd;
      }
    </style>
  </defs>
  <path d="M16.000,8.000 C16.000,8.882 14.968,9.668 13.350,10.216 C14.105,11.747 14.281,13.033 13.657,13.657 C13.033,14.281 11.747,14.105 10.216,13.350 C9.668,14.968 8.882,16.000 8.000,16.000 C7.118,16.000 6.332,14.968 5.784,13.350 C4.253,14.105 2.967,14.281 2.343,13.657 C1.719,13.033 1.895,11.747 2.650,10.216 C1.032,9.668 -0.000,8.882 -0.000,8.000 C-0.000,7.118 1.032,6.332 2.650,5.784 C1.895,4.253 1.719,2.967 2.343,2.343 C2.967,1.719 4.253,1.895 5.784,2.650 C6.332,1.032 7.118,-0.000 8.000,-0.000 C8.882,-0.000 9.668,1.032 10.216,2.650 C11.747,1.895 13.033,1.719 13.657,2.343 C14.281,2.967 14.105,4.253 13.350,5.784 C14.968,6.332 16.000,7.118 16.000,8.000 ZM12.950,12.950 C13.343,12.556 13.134,11.636 12.482,10.472 C11.960,10.605 11.407,10.722 10.806,10.806 C10.722,11.407 10.605,11.960 10.472,12.482 C11.636,13.134 12.556,13.343 12.950,12.950 ZM11.331,7.237 C11.561,6.939 11.777,6.645 11.967,6.362 C11.635,6.297 11.290,6.236 10.920,6.187 C10.936,6.374 10.934,6.577 10.945,6.768 C11.085,6.924 11.199,7.080 11.331,7.237 ZM10.000,8.000 C10.000,7.709 9.975,7.446 9.963,7.167 C9.781,6.973 9.608,6.779 9.414,6.586 C9.221,6.392 9.027,6.219 8.833,6.037 C8.554,6.025 8.291,6.000 8.000,6.000 C7.709,6.000 7.446,6.025 7.167,6.037 C6.973,6.219 6.779,6.392 6.586,6.586 C6.392,6.779 6.219,6.973 6.037,7.167 C6.025,7.446 6.000,7.709 6.000,8.000 C6.000,8.291 6.025,8.554 6.037,8.833 C6.219,9.027 6.392,9.221 6.586,9.414 C6.779,9.608 6.973,9.781 7.167,9.963 C7.446,9.975 7.709,10.000 8.000,10.000 C8.291,10.000 8.554,9.975 8.833,9.963 C9.027,9.781 9.221,9.608 9.414,9.414 C9.608,9.221 9.781,9.027 9.963,8.833 C9.975,8.554 10.000,8.291 10.000,8.000 ZM9.638,4.033 C9.355,4.223 9.061,4.439 8.763,4.669 C8.920,4.801 9.076,4.915 9.232,5.055 C9.423,5.066 9.626,5.064 9.813,5.080 C9.764,4.710 9.703,4.365 9.638,4.033 ZM5.080,6.187 C4.710,6.236 4.365,6.297 4.033,6.362 C4.218,6.638 4.434,6.925 4.659,7.216 C4.786,7.066 4.921,6.918 5.055,6.768 C5.064,6.575 5.064,6.374 5.080,6.187 ZM4.669,8.763 C4.439,9.061 4.223,9.355 4.033,9.638 C4.365,9.703 4.710,9.764 5.080,9.813 C5.064,9.626 5.066,9.423 5.055,9.232 C4.915,9.076 4.801,8.920 4.669,8.763 ZM6.362,11.967 C6.645,11.777 6.939,11.561 7.237,11.331 C7.080,11.199 6.924,11.085 6.768,10.945 C6.577,10.934 6.374,10.936 6.187,10.920 C6.236,11.290 6.297,11.635 6.362,11.967 ZM10.945,9.232 C10.936,9.425 10.936,9.626 10.920,9.813 C11.290,9.764 11.635,9.703 11.967,9.638 C11.782,9.362 11.566,9.075 11.341,8.784 C11.214,8.934 11.079,9.082 10.945,9.232 ZM9.813,10.920 C9.626,10.936 9.425,10.936 9.232,10.945 C9.082,11.079 8.934,11.214 8.784,11.341 C9.075,11.566 9.362,11.782 9.638,11.967 C9.703,11.635 9.764,11.290 9.813,10.920 ZM8.000,15.000 C8.553,15.000 9.048,14.198 9.409,12.925 C8.952,12.652 8.479,12.323 8.002,11.959 C7.523,12.320 7.049,12.652 6.591,12.925 C6.952,14.198 7.447,15.000 8.000,15.000 ZM3.050,12.950 C3.444,13.343 4.364,13.134 5.528,12.482 C5.395,11.960 5.278,11.407 5.194,10.806 C4.593,10.722 4.040,10.605 3.518,10.472 C2.866,11.636 2.657,12.556 3.050,12.950 ZM1.000,8.000 C1.000,8.553 1.802,9.048 3.075,9.409 C3.348,8.951 3.680,8.477 4.041,7.998 C3.677,7.521 3.348,7.048 3.075,6.591 C1.802,6.952 1.000,7.447 1.000,8.000 ZM3.050,3.050 C2.657,3.444 2.866,4.364 3.518,5.528 C4.040,5.395 4.593,5.278 5.194,5.194 C5.278,4.593 5.395,4.040 5.528,3.518 C4.364,2.866 3.444,2.657 3.050,3.050 ZM6.187,5.080 C6.374,5.064 6.575,5.064 6.768,5.055 C6.918,4.921 7.066,4.786 7.216,4.659 C6.925,4.434 6.638,4.218 6.362,4.033 C6.297,4.365 6.236,4.710 6.187,5.080 ZM8.000,1.000 C7.447,1.000 6.952,1.802 6.591,3.075 C7.048,3.348 7.521,3.677 7.998,4.041 C8.477,3.680 8.951,3.348 9.409,3.075 C9.048,1.802 8.553,1.000 8.000,1.000 ZM12.950,3.050 C12.556,2.657 11.636,2.866 10.472,3.518 C10.605,4.040 10.722,4.593 10.806,5.194 C11.407,5.278 11.960,5.395 12.482,5.528 C13.134,4.364 13.343,3.444 12.950,3.050 ZM12.925,6.591 C12.652,7.049 12.320,7.523 11.959,8.002 C12.323,8.479 12.652,8.952 12.925,9.409 C14.198,9.048 15.000,8.553 15.000,8.000 C15.000,7.447 14.198,6.952 12.925,6.591 Z" class="cls-1"/>
</svg>
